GRFsquat.mot
version=1
nRows=21
nColumns=37
inDegrees=yes
endheader
time	ground_force_calcn_l_vx	ground_force_calcn_l_vy	ground_force_calcn_l_vz	ground_force_calcn_l_px	ground_force_calcn_l_py	ground_force_calcn_l_pz	ground_torque_calcn_l_vx	ground_torque_calcn_l_vy	ground_torque_calcn_l_vz	ground_force_calcn_r_vx	ground_force_calcn_r_vy	ground_force_calcn_r_vz	ground_force_calcn_r_px	ground_force_calcn_r_py	ground_force_calcn_r_pz	ground_torque_calcn_r_vx	ground_torque_calcn_r_vy	ground_torque_calcn_r_vz	ground_force_hand_l_vx	ground_force_hand_l_vy	ground_force_hand_l_vz	ground_force_hand_l_px	ground_force_hand_l_py	ground_force_hand_l_pz	ground_torque_hand_l_vx	ground_torque_hand_l_vy	ground_torque_hand_l_vz	ground_force_hand_r_vx	ground_force_hand_r_vy	ground_force_hand_r_vz	ground_force_hand_r_px	ground_force_hand_r_py	ground_force_hand_r_pz	ground_torque_hand_r_vx	ground_torque_hand_r_vy	ground_torque_hand_r_vz
 1.499984     -36.30145      467.7816      77.16162      1.118438 -6.765422e-17    -0.4800712             0    -0.3602455             0     -10.74606      203.0698     -20.10878      1.107362 -6.765422e-17   0.005624897             0    -0.1610113             0             0             0             0      1.289559     0.7299498    -0.6034021             0             0             0             0             0             0      1.287069     0.7185246    0.07845069             0             0             0
 1.516651     -34.22012      425.1218      69.94897      1.115579 -6.765422e-17    -0.4791734             0    -0.2298097             0     -8.632657      218.5438     -22.57862       1.10285 -6.765422e-17   0.006130955             0    -0.0527702             0             0             0             0      1.266178     0.7362932    -0.6154335             0             0             0             0             0             0       1.26719      0.729249    0.09646943             0             0             0
 1.533317     -28.90459      375.0588      60.58542      1.112017 -6.765422e-17    -0.4784977             0    -0.1083461             0     -6.178327      242.2504     -27.61097      1.098316 -6.765422e-17   0.006266572             0    0.03632464             0             0             0             0      1.241419     0.7425906    -0.6263048             0             0             0             0             0             0      1.247558      0.740722     0.1131291             0             0             0
 1.549984     -20.80322      324.1037      50.41075      1.108091 -6.765422e-17    -0.4781178             0   -0.01008511             0     -3.299817      270.3046      -34.1597      1.094079 -6.765422e-17   0.005979351             0    0.09332303             0             0             0             0      1.215805      0.748796    -0.6361642             0             0             0             0             0             0      1.228573     0.7525921     0.1282698             0             0             0
  1.56665     -10.80126      278.5111      40.72276      1.103902 -6.765422e-17    -0.4780116             0     0.0565511             0   -0.05337375      298.6644      -41.0237      1.090417 -6.591949e-17    0.00532453             0     0.1126519             0             0             0             0      1.189908     0.7549036    -0.6451942             0             0             0             0             0             0       1.21054     0.7645361     0.1418622             0             0             0
 1.583317   -0.01926362      243.2176      32.56499       1.09907 -6.765422e-17    -0.4780031             0    0.09002646             0      3.406538      323.8411     -47.09778      1.087493 -6.591949e-17   0.004432427             0    0.09654251             0             0             0             0       1.16426     0.7609246    -0.6535644             0             0             0             0             0             0       1.19364     0.7762598     0.1539739             0             0             0
 1.599984      10.41872      221.1691      26.60188      1.093814 -6.765422e-17    -0.4779666             0     0.0949844             0      6.886402      343.3824     -51.56828      1.085305 -6.591949e-17   0.003447556             0    0.05352771             0             0             0             0      1.139297     0.7668582    -0.6613828             0             0             0             0             0             0      1.177933     0.7874987     0.1647237             0             0             0
  1.61665      19.58376      213.1228      23.08594      1.088453 -6.591949e-17    -0.4778032             0    0.08020274             0      10.20606      356.0689     -54.01451      1.083696 -6.591949e-17   0.002478189             0  -0.004293116             0             0             0             0      1.115335     0.7726714    -0.6686623             0             0             0             0             0             0      1.163402     0.7980289     0.1742407             0             0             0
 1.633317      26.86475      217.8871      21.90305      1.083257 -6.591949e-17    -0.4774603             0    0.05595068             0      13.22854      361.8493     -54.41188      1.082421 -6.591949e-17   0.001575448             0   -0.06431567             0             0             0             0      1.092579     0.7782994    -0.6753255             0             0             0             0             0             0      1.149987     0.8076852     0.1826389             0             0             0
 1.649983      32.00034      232.8723      22.67023      1.078394 -6.591949e-17     -0.476939             0    0.03152839             0      15.86406      361.5898     -53.05837      1.081227 -6.591949e-17  0.0007373359             0    -0.1159973             0             0             0             0      1.071135     0.7836618    -0.6812474             0             0             0             0             0             0      1.137628     0.8163783     0.1900103             0             0             0
  1.66665      35.03227      254.7819      24.85594      1.073899 -6.591949e-17    -0.4762786             0    0.01358881             0      18.05562      356.7366     -50.45855      1.079912 -6.591949e-17 -7.490553e-05             0    -0.1523922             0             0             0             0      1.051033     0.7886841    -0.6863135             0             0             0             0             0             0      1.126281     0.8240932     0.1964281             0             0             0
 1.683317      36.20956      280.2805      27.89572      1.069732 -6.591949e-17    -0.4755365             0   0.005508225             0      19.75987      348.9718     -47.19826      1.078344 -6.591949e-17 -0.0009161388             0    -0.1705078             0             0             0             0      1.032258     0.7933116    -0.6904662             0             0             0             0             0             0      1.115922     0.8308674     0.2019527             0             0             0
 1.699983      35.88003      306.5157        31.284      1.065846 -6.591949e-17    -0.4747731             0   0.007703091             0      20.93542      339.9211     -43.83509      1.076459 -6.591949e-17  -0.001835867             0    -0.1707009             0             0             0             0      1.014781     0.7975091    -0.6937194             0             0             0             0             0             0      1.106536     0.8367606      0.206638             0             0             0
  1.71665      34.40027      331.4289      34.63258      1.062237 -6.418477e-17    -0.4740411             0    0.01852366             0      21.54458      330.9419     -40.81937      1.074257 -6.591949e-17  -0.002859447             0    -0.1555654             0             0             0             0     0.9985785     0.8012483    -0.6961424             0             0             0             0             0             0      1.098111     0.8418305     0.2105394             0             0             0
 1.733316      32.08217      353.8427       37.6945      1.058952 -6.418477e-17    -0.4733802             0    0.03527805             0       21.5661      323.0027     -38.45127       1.07181 -6.591949e-17   -0.00397639             0    -0.1287902             0             0             0             0     0.9836489     0.8044977    -0.6978265             0             0             0             0             0             0      1.090636     0.8461243      0.213717             0             0             0
 1.749983      29.17843       373.358      40.35705      1.056066 -6.418477e-17    -0.4728115             0    0.05504459             0      21.01092      316.6529     -36.87272      1.069259 -6.591949e-17  -0.005139569             0   -0.09431609             0             0             0             0     0.9700123      0.807223    -0.6988589             0             0             0             0             0             0      1.084104     0.8496807     0.2162311             0             0             0
  1.76665      25.89619      390.1215      42.61193      1.053636 -6.418477e-17    -0.4723376             0    0.07513097             0      19.93217      312.0723     -36.08803      1.066797 -6.591949e-17  -0.006275244             0   -0.05589468             0             0             0             0     0.9577029     0.8094017    -0.6993104             0             0             0             0             0             0      1.078515     0.8525379     0.2181297             0             0             0
 1.783316      22.42135      404.5397       44.5126      1.051667 -6.418477e-17    -0.4719485             0    0.09323405             0      18.42434      309.1779     -36.00399      1.064616 -6.591949e-17  -0.007299397             0    -0.0169542             0             0             0             0     0.9467606     0.8110398    -0.6992382             0             0             0             0             0             0      1.073878     0.8547392     0.2194358             0             0             0
 1.799983      18.93676      417.0155      46.13019      1.050106 -6.418477e-17     -0.471631             0     0.1074682             0      16.61198       307.758     -36.47768       1.06285 -6.591949e-17   -0.00813511             0    0.01942374             0             0             0             0     0.9372234     0.8121798    -0.6986949             0             0             0             0             0             0      1.070219     0.8563336     0.2201433             0             0             0
 1.816649      15.62338      427.7679      47.51817      1.048866 -6.418477e-17    -0.4713751             0     0.1164331             0      14.63228       307.596     -37.36082      1.061556 -6.418477e-17  -0.008729268             0    0.05060477             0             0             0             0     0.9291214     0.8128902    -0.6977377             0             0             0             0             0             0      1.067574     0.8573645      0.220226             0             0             0
 1.833316      12.64251      436.7671      48.69297      1.047876 -6.418477e-17    -0.4711755             0     0.1194052             0      12.61709      308.5562     -38.53158      1.060708 -6.418477e-17  -0.009068545             0    0.07467173             0             0             0             0     0.9224709     0.8132368    -0.6964342             0             0             0             0             0             0      1.065982     0.8578523     0.2196605             0             0             0
